<?xml version="1.0" encoding="UTF-8"?>
<svg version="1.1" xmlns="http://www.w3.org/2000/svg" width="512" height="512">
<path d="M0 0 C1.13132355 -0.00525696 2.26264709 -0.01051392 3.42825317 -0.01593018 C7.15698191 -0.02909758 10.88528079 -0.02039666 14.61401367 -0.01025391 C17.22507305 -0.01227711 19.83613188 -0.0151906 22.44718933 -0.01895142 C27.92203359 -0.02440057 33.39675627 -0.0172485 38.87158203 -0.00292969 C45.15055485 0.01330546 51.42923394 0.00817206 57.70819932 -0.0084089 C63.7950595 -0.02382475 69.88179244 -0.02198482 75.96866417 -0.0132637 C78.53471608 -0.01128101 81.10077562 -0.01365199 83.66681862 -0.02070236 C124.126676 -0.10739978 156.8430372 8.93301152 186.84448242 37.32568359 C193.99862777 44.60299931 199.71955428 52.98711287 205.46948242 61.38818359 C206.03715332 62.20899414 206.60482422 63.02980469 207.18969727 63.87548828 C207.73964355 64.68147461 208.28958984 65.48746094 208.85620117 66.31787109 C209.35724365 67.04989746 209.85828613 67.78192383 210.37451172 68.53613281 C211.46948242 70.38818359 211.46948242 70.38818359 211.46948242 72.38818359 C212.12948242 72.38818359 212.78948242 72.38818359 213.46948242 72.38818359 C213.87565796 71.2880896 213.87565796 71.2880896 214.29003906 70.16577148 C219.75875488 57.28695139 230.57371759 45.15161279 240.46948242 35.38818359 C241.32670898 34.53224609 242.18393555 33.67630859 243.06713867 32.79443359 C257.46837278 19.05069324 274.58101854 9.97322015 293.65698242 4.51318359 C294.31996338 4.32199951 294.98294434 4.13081543 295.66601562 3.93383789 C311.73401669 -0.31508857 328.12855163 0.06179606 344.61401367 0.05224609 C347.23662893 0.04580806 349.85924349 0.03907897 352.4818573 0.03207397 C357.95259771 0.01936608 363.42328979 0.01630124 368.89404297 0.01757812 C375.19326413 0.01878308 381.49214469 -0.00241596 387.79127961 -0.0339092 C393.89259461 -0.06331024 399.99374692 -0.07039572 406.09512901 -0.06920242 C408.67421557 -0.07155472 411.25330497 -0.08035717 413.83234596 -0.09586716 C417.43799687 -0.11553954 421.04277143 -0.10968535 424.6484375 -0.09765625 C425.70165695 -0.10889526 426.7548764 -0.12013428 427.8400116 -0.13171387 C435.80411771 -0.06445614 442.82276168 1.43863005 449.12573242 6.53662109 C449.73416992 7.27138672 450.34260742 8.00615234 450.96948242 8.76318359 C451.59854492 9.49279297 452.22760742 10.22240234 452.87573242 10.97412109 C457.15859258 17.46139456 456.75922111 24.12041512 456.74363708 31.62139893 C456.74887376 32.86495329 456.75411044 34.10850765 456.75950581 35.38974547 C456.77190362 38.83442857 456.77534959 42.27890741 456.7749089 45.72359872 C456.77655936 49.44152958 456.78963013 53.15942347 456.80110168 56.87733459 C456.82393263 65.00342412 456.83187016 73.12948749 456.83692813 81.25560474 C456.8401872 86.33159842 456.84671094 91.40758452 456.85392952 96.48357391 C456.87349254 110.54372539 456.88989863 124.60386984 456.89280605 138.6640358 C456.89299362 139.56343088 456.89318119 140.46282597 456.89337445 141.38947545 C456.89374069 143.21268225 456.89410439 145.03588904 456.89446556 146.85909584 C456.89464837 147.76410984 456.89483118 148.66912384 456.89501953 149.6015625 C456.89529035 150.96074459 456.89529035 150.96074459 456.89556665 152.3473849 C456.89910813 167.02902849 456.92613019 181.7105254 456.96351742 196.39211813 C457.00161476 211.47350972 457.02096363 226.55482855 457.02126557 241.63626933 C457.02184979 250.10075897 457.03031962 258.56507359 457.05926323 267.02951813 C457.08379616 274.23709332 457.09104714 281.44442965 457.0760157 288.65203533 C457.06885466 292.32732432 457.06966871 296.0021418 457.0924263 299.6773777 C457.116897 303.66760819 457.1023584 307.65676957 457.08421326 311.64703369 C457.09741322 312.80055179 457.11061319 313.95406989 457.12421316 315.14254308 C457.03933648 323.32511818 455.37385034 330.2074276 449.65547746 336.33060098 C443.20631897 342.28856462 437.25748286 342.68350331 428.77026367 342.67529297 C427.69135864 342.68212601 426.61245361 342.68895905 425.50085449 342.69599915 C423.15737998 342.70958411 420.81387584 342.71863934 418.47036743 342.72370911 C414.7423486 342.73202197 411.01457196 342.75255747 407.28662109 342.77624512 C399.34761062 342.8244803 391.40857371 342.85737721 383.46948242 342.88818359 C374.31823617 342.92387515 365.16709746 342.96644044 356.01596069 343.02412415 C352.37781111 343.04391237 348.73975415 343.05246011 345.1015625 343.0604248 C319.17043645 342.99016632 319.17043645 342.99016632 293.84448242 347.95068359 C292.99168701 348.2075293 292.1388916 348.464375 291.26025391 348.72900391 C258.60035704 359.03409176 236.41964312 380.26283941 218.47021484 408.81884766 C217.85122314 409.79563477 217.23223145 410.77242188 216.59448242 411.77880859 C215.76303711 413.10960449 215.76303711 413.10960449 214.91479492 414.46728516 C214.19936523 415.41812988 214.19936523 415.41812988 213.46948242 416.38818359 C212.80948242 416.38818359 212.14948242 416.38818359 211.46948242 416.38818359 C209.91650391 414.35961914 209.91650391 414.35961914 208.09057617 411.52490234 C207.41575195 410.49171875 206.74092773 409.45853516 206.0456543 408.39404297 C205.33989258 407.29898437 204.63413086 406.20392578 203.90698242 405.07568359 C185.12340783 375.94598055 159.98309159 354.22578966 125.47729492 346.46240234 C109.47207563 343.13691349 93.39825094 343.24449548 77.12144852 343.21951866 C73.37952548 343.21227355 69.63772763 343.19655317 65.89584351 343.17817688 C55.26723789 343.12604759 44.63873321 343.07724098 34.01000977 343.06225586 C27.4839097 343.05296161 20.95808219 343.02285718 14.43210983 342.98093605 C11.95468 342.96864613 9.47720373 342.9635011 6.99974442 342.96573448 C3.53959143 342.96808898 0.0803861 342.9459143 -3.37963867 342.91821289 C-4.39486603 342.9248143 -5.41009338 342.93141571 -6.45608521 342.93821716 C-13.62446999 342.84413829 -18.97974581 341.38087728 -24.51879883 336.71240234 C-24.95579102 336.17228516 -25.3927832 335.63216797 -25.84301758 335.07568359 C-26.29290039 334.54330078 -26.7427832 334.01091797 -27.20629883 333.46240234 C-31.77096814 326.3124336 -31.96122616 320.32248209 -31.91819763 311.98329163 C-31.92358317 310.73338816 -31.92896871 309.48348469 -31.93451744 308.19570535 C-31.94894872 304.73800886 -31.9447347 301.2805512 -31.93735063 297.82284176 C-31.9326155 294.08928458 -31.94513183 290.3557788 -31.95536804 286.62223816 C-31.97255446 279.31254788 -31.97339641 272.00294356 -31.96815514 264.69323833 C-31.96411202 258.75143568 -31.96555868 252.80965842 -31.9709034 246.86785698 C-31.97165182 246.02185465 -31.97240024 245.17585233 -31.97317134 244.30421356 C-31.97470283 242.58550815 -31.97624118 240.86680273 -31.97778631 239.14809733 C-31.9915107 223.03454662 -31.98607402 206.92104447 -31.9746011 190.80749487 C-31.96466808 176.0696158 -31.97761066 161.33186226 -32.00153529 146.59400255 C-32.02592396 131.45608312 -32.03553477 116.31822217 -32.02888256 101.18028349 C-32.02538992 92.68349172 -32.02762545 84.18679651 -32.04513359 75.69001961 C-32.05985264 68.45717251 -32.06049491 61.22448997 -32.04306268 53.99164612 C-32.03454792 50.30249288 -32.03241448 46.61363363 -32.04771423 42.9244957 C-32.0641047 38.92277836 -32.04941995 34.92177084 -32.03172302 30.9200592 C-32.04132803 29.7575066 -32.05093304 28.59495399 -32.0608291 27.39717251 C-31.98978821 19.59745056 -30.82017489 14.29292388 -25.67114258 8.18115234 C-25.04723633 7.65134766 -24.42333008 7.12154297 -23.78051758 6.57568359 C-23.16692383 6.03298828 -22.55333008 5.49029297 -21.92114258 4.93115234 C-14.8029231 0.3368767 -8.24505768 -0.04749879 0 0 Z " fill="#FEDE5D" transform="translate(43.530517578125,41.61181640625)"/>
<path d="M0 0 C1.13132355 -0.00525696 2.26264709 -0.01051392 3.42825317 -0.01593018 C7.15698191 -0.02909758 10.88528079 -0.02039666 14.61401367 -0.01025391 C17.22507305 -0.01227711 19.83613188 -0.0151906 22.44718933 -0.01895142 C27.92203359 -0.02440057 33.39675627 -0.0172485 38.87158203 -0.00292969 C45.15055485 0.01330546 51.42923394 0.00817206 57.70819932 -0.0084089 C63.7950595 -0.02382475 69.88179244 -0.02198482 75.96866417 -0.0132637 C78.53471608 -0.01128101 81.10077562 -0.01365199 83.66681862 -0.02070236 C124.126676 -0.10739978 156.8430372 8.93301152 186.84448242 37.32568359 C193.28246048 43.88356669 198.6518709 51.28519524 203.76753992 58.90653819 C204.89381045 60.54878173 206.06415556 62.16172394 207.2778402 63.74046355 C212.81154241 71.39247905 213.45612044 77.4891443 213.31126404 86.77055359 C213.31432225 88.19898803 213.32046175 89.62741857 213.3293882 91.05582839 C213.3449437 94.95362867 213.31717913 98.85006698 213.28194177 102.7476939 C213.25157874 106.96089781 213.26195153 111.17403122 213.26725769 115.38731384 C213.27091978 122.67793006 213.24904586 129.96810616 213.20959282 137.25861168 C213.15258876 147.79924741 213.13446103 158.33967135 213.12567688 168.8804445 C213.11037439 185.98397477 213.06383859 203.08727071 212.99755859 220.19067383 C212.93325898 236.80036246 212.88373279 253.40998734 212.85400391 270.01977539 C212.85216484 271.04441191 212.85032578 272.06904843 212.84843098 273.12473454 C212.83929541 278.26527768 212.83044953 283.40582126 212.82174766 288.54636514 C212.74923639 331.16046689 212.62599322 373.77431312 212.46948242 416.38818359 C210.03704189 413.36808519 207.70234498 410.3575469 205.55151367 407.13037109 C205.02388428 406.34509033 204.49625488 405.55980957 203.95263672 404.75073242 C203.4013208 403.92984131 202.85000488 403.1089502 202.28198242 402.26318359 C197.34026122 394.98316092 192.32657008 387.97032659 186.46948242 381.38818359 C185.87522461 380.71142578 185.2809668 380.03466797 184.66870117 379.33740234 C162.73493961 355.90068495 130.90460936 344.65343582 99.46948242 343.38818359 C92.02152084 343.22259163 84.57091764 343.2309499 77.12144852 343.21951866 C73.37952548 343.21227355 69.63772763 343.19655317 65.89584351 343.17817688 C55.26723789 343.12604759 44.63873321 343.07724098 34.01000977 343.06225586 C27.4839097 343.05296161 20.95808219 343.02285718 14.43210983 342.98093605 C11.95468 342.96864613 9.47720373 342.9635011 6.99974442 342.96573448 C3.53959143 342.96808898 0.0803861 342.9459143 -3.37963867 342.91821289 C-4.39486603 342.9248143 -5.41009338 342.93141571 -6.45608521 342.93821716 C-13.62446999 342.84413829 -18.97974581 341.38087728 -24.51879883 336.71240234 C-24.95579102 336.17228516 -25.3927832 335.63216797 -25.84301758 335.07568359 C-26.29290039 334.54330078 -26.7427832 334.01091797 -27.20629883 333.46240234 C-31.77096814 326.3124336 -31.96122616 320.32248209 -31.91819763 311.98329163 C-31.92358317 310.73338816 -31.92896871 309.48348469 -31.93451744 308.19570535 C-31.94894872 304.73800886 -31.9447347 301.2805512 -31.93735063 297.82284176 C-31.9326155 294.08928458 -31.94513183 290.3557788 -31.95536804 286.62223816 C-31.97255446 279.31254788 -31.97339641 272.00294356 -31.96815514 264.69323833 C-31.96411202 258.75143568 -31.96555868 252.80965842 -31.9709034 246.86785698 C-31.97165182 246.02185465 -31.97240024 245.17585233 -31.97317134 244.30421356 C-31.97470283 242.58550815 -31.97624118 240.86680273 -31.97778631 239.14809733 C-31.9915107 223.03454662 -31.98607402 206.92104447 -31.9746011 190.80749487 C-31.96466808 176.0696158 -31.97761066 161.33186226 -32.00153529 146.59400255 C-32.02592396 131.45608312 -32.03553477 116.31822217 -32.02888256 101.18028349 C-32.02538992 92.68349172 -32.02762545 84.18679651 -32.04513359 75.69001961 C-32.05985264 68.45717251 -32.06049491 61.22448997 -32.04306268 53.99164612 C-32.03454792 50.30249288 -32.03241448 46.61363363 -32.04771423 42.9244957 C-32.0641047 38.92277836 -32.04941995 34.92177084 -32.03172302 30.9200592 C-32.04132803 29.7575066 -32.05093304 28.59495399 -32.0608291 27.39717251 C-31.98978821 19.59745056 -30.82017489 14.29292388 -25.67114258 8.18115234 C-25.04723633 7.65134766 -24.42333008 7.12154297 -23.78051758 6.57568359 C-23.16692383 6.03298828 -22.55333008 5.49029297 -21.92114258 4.93115234 C-14.8029231 0.3368767 -8.24505768 -0.04749879 0 0 Z " fill="#B5BBC9" transform="translate(43.530517578125,41.61181640625)"/>
<path d="M0 0 C1.23013824 -0.00524185 2.46027649 -0.0104837 3.72769165 -0.0158844 C6.32138314 -0.02228789 8.91510373 -0.02098939 11.50878906 -0.01245117 C15.45691162 -0.00394857 19.40358285 -0.03271775 23.3515625 -0.06445312 C25.8802079 -0.06606562 28.40885585 -0.06548669 30.9375 -0.0625 C32.6926442 -0.07935097 32.6926442 -0.07935097 34.48324585 -0.09654236 C42.85646732 -0.02607012 50.10854213 1.20394492 56.7578125 6.58203125 C57.36625 7.31679688 57.9746875 8.0515625 58.6015625 8.80859375 C59.54515625 9.90300781 59.54515625 9.90300781 60.5078125 11.01953125 C64.52287445 17.10116921 64.3984314 23.15895605 64.39208984 30.19311523 C64.39880707 31.26539368 64.40552429 32.33767212 64.41244507 33.44244385 C64.43141176 36.97990578 64.43534838 40.51717791 64.4375 44.0546875 C64.44392795 46.5179909 64.45065631 48.98129354 64.45767212 51.44459534 C64.46964093 56.60509003 64.47335325 61.7655178 64.47216797 66.92602539 C64.4719646 73.53477342 64.49928728 80.14309228 64.53371239 86.75173855 C64.5559591 91.83813953 64.56000621 96.92443677 64.55894852 102.01088142 C64.56130703 104.44731185 64.57014459 106.88374503 64.58561325 109.32012749 C64.60523075 112.72861633 64.59945138 116.13617357 64.58740234 119.54467773 C64.59864136 120.54801651 64.60988037 121.55135529 64.62145996 122.58509827 C64.56629312 128.7332539 63.72160657 132.41153225 60.1015625 137.43359375 C56.94411405 139.63036275 53.7682598 140.06459496 49.91552734 139.97705078 C43.4751788 138.73323542 37.63187209 134.98041609 31.9140625 131.87109375 C29.90170063 130.78012974 27.88721086 129.69544604 25.86100769 128.63038635 C24.60731531 127.97134801 23.36118265 127.2976525 22.12446594 126.60728455 C18.00922856 124.44283099 15.54615753 124.11063169 11.1015625 125.43359375 C9.01169317 126.32691111 6.95569321 127.30221015 4.93359375 128.33984375 C3.22333008 129.20802734 3.22333008 129.20802734 1.47851562 130.09375 C0.29017113 130.70665631 -0.89797802 131.31994152 -2.0859375 131.93359375 C-4.43199785 133.13467017 -6.7803738 134.3310975 -9.12890625 135.52734375 C-10.16426514 136.06037109 -11.19962402 136.59339844 -12.26635742 137.14257812 C-16.73846311 139.33611257 -20.95267896 140.4010456 -25.8984375 139.43359375 C-29.14448101 137.52817242 -32.30620785 135.31142101 -33.47304726 131.61163521 C-33.92120901 129.31700131 -34.03579072 127.21918034 -34.05233765 124.88180542 C-34.06093811 123.97361557 -34.06953857 123.06542572 -34.07839966 122.12971497 C-34.08265961 121.14057602 -34.08691956 120.15143707 -34.09130859 119.13232422 C-34.09948608 118.08466385 -34.10766357 117.03700348 -34.11608887 115.95759583 C-34.14091054 112.4886634 -34.15745204 109.01977186 -34.171875 105.55078125 C-34.17719868 104.36438175 -34.18252235 103.17798225 -34.18800735 101.95563126 C-34.21472677 95.67420345 -34.23410432 89.39279543 -34.24853516 83.11132812 C-34.26186672 77.92006786 -34.28970757 72.72920136 -34.33056641 67.53808594 C-34.37995072 61.26348398 -34.40466367 54.98923884 -34.41176224 48.71445084 C-34.41846405 46.3279239 -34.43365803 43.94140458 -34.45765305 41.55498886 C-34.48939533 38.2066509 -34.4893269 34.8596804 -34.48193359 31.51123047 C-34.49833893 30.53423691 -34.51474426 29.55724335 -34.53164673 28.55064392 C-34.46103137 20.69742091 -32.29124182 14.16104276 -26.93782616 8.27960014 C-18.95288049 0.58950409 -10.62482887 -0.02656458 0 0 Z " fill="#B6BBC8" transform="translate(435.8984375,41.56640625)"/>
<path d="M0 0 C1.0489942 -0.00467997 1.0489942 -0.00467997 2.1191802 -0.00945449 C4.44432799 -0.01738225 6.76921098 -0.01113145 9.09436035 -0.00482178 C10.76874442 -0.00753396 12.4431273 -0.01109617 14.11750793 -0.01544189 C18.65257265 -0.02454107 23.18754612 -0.02103184 27.72261238 -0.01468372 C32.47458258 -0.00961094 37.22654511 -0.01431873 41.97851562 -0.01745605 C49.95773721 -0.02109197 57.93692174 -0.01630642 65.9161377 -0.0067749 C75.13371484 0.00410892 84.35120351 0.00058308 93.56877851 -0.01042771 C101.49083954 -0.01951125 109.41287397 -0.02078064 117.33493853 -0.01555037 C122.06292197 -0.01243655 126.79086385 -0.0120052 131.5188446 -0.01862335 C135.9643231 -0.02441169 140.4096878 -0.02037269 144.85515404 -0.00883484 C146.48412576 -0.00619621 148.1131071 -0.0069397 149.74207497 -0.01136017 C151.97051213 -0.01684866 154.19858765 -0.00994182 156.42700195 0 C158.29520473 0.00113108 158.29520473 0.00113108 160.20114899 0.002285 C165.71228486 0.39719282 169.55099547 1.1420055 173.58850098 5.00396729 C176.19039412 8.98333327 177.21974536 11.53290372 176.33850098 16.26959229 C174.90090695 21.12147213 173.24547492 22.88145661 168.68596363 25.3974905 C165.51753545 26.77327583 162.62780476 26.75789271 159.19921875 26.76190186 C158.11347258 26.7712618 158.11347258 26.7712618 157.00579214 26.78081083 C154.5974765 26.79667568 152.19018222 26.78416303 149.78186035 26.77154541 C148.0483593 26.77696945 146.31486287 26.7840937 144.58137512 26.79278564 C139.88507298 26.8109884 135.18912316 26.80396408 130.49281502 26.7912693 C125.57267448 26.78112584 120.65256363 26.79053872 115.73242188 26.79681396 C107.47068885 26.80408644 99.20909897 26.79451314 90.9473877 26.77545166 C81.40253462 26.7536837 71.85802334 26.76073535 62.31317854 26.78275728 C54.11084303 26.80092265 45.90861028 26.80346404 37.70626116 26.79300261 C32.81056143 26.78677393 27.91502223 26.78591483 23.01933289 26.79914856 C18.41614509 26.81072297 13.81339699 26.80265232 9.21025658 26.77957153 C7.52323829 26.77429293 5.83618285 26.77578369 4.14917946 26.78462219 C1.84155177 26.79559548 -0.4646776 26.78179457 -2.7722168 26.76190186 C-4.70678867 26.7596397 -4.70678867 26.7596397 -6.68044281 26.75733185 C-11.17403505 26.13007732 -13.53349803 24.76901517 -17.28649902 22.25396729 C-20.26573674 18.14410473 -20.0222473 13.11297153 -19.28649902 8.25396729 C-17.96790214 5.3695366 -16.8156402 4.40642786 -14.28649902 2.25396729 C-9.41810553 0.53417744 -5.14406517 0.0031144 0 0 Z " fill="#FFDC59" transform="translate(19.2864990234375,443.74603271484375)"/>
<path d="M0 0 C0.69762062 -0.00226556 1.39524123 -0.00453111 2.11400187 -0.00686532 C4.44529108 -0.01318174 6.7765218 -0.01237748 9.1078186 -0.0115509 C10.78190689 -0.01454386 12.45599449 -0.0179467 14.13008118 -0.02172852 C18.67350233 -0.0305586 23.21690464 -0.03290621 27.76033354 -0.0335443 C30.59987426 -0.03425534 33.4394102 -0.03639067 36.27894974 -0.03904152 C46.18789219 -0.04829146 56.09682119 -0.05237682 66.00576782 -0.05158997 C75.2380664 -0.05098917 84.47030655 -0.06154219 93.70259035 -0.07733363 C101.63309865 -0.09041441 109.56358788 -0.09577364 117.49410689 -0.09513456 C122.2288332 -0.09487974 126.96350757 -0.09772204 131.69822311 -0.10831261 C136.15187348 -0.11800267 140.60542234 -0.11806652 145.05907631 -0.11079597 C146.69127488 -0.10975128 148.3234798 -0.11210616 149.9556675 -0.11815643 C152.18858129 -0.12589578 154.42114623 -0.12121891 156.65405273 -0.11352539 C157.90211889 -0.11407016 159.15018505 -0.11461493 160.4360714 -0.1151762 C165.82003514 0.26573129 169.74885426 1.1080483 173.89151001 4.63371277 C176.50595401 8.14552368 176.5490239 11.53096935 176.30557251 15.79777527 C175.83094017 18.9514435 175.10906622 20.76315094 172.95401001 23.13371277 C168.34691423 25.91816774 164.90891619 26.51132233 159.5599823 26.52139282 C158.83700594 26.52677836 158.11402959 26.5321639 157.36914486 26.53771263 C154.95788598 26.55196674 152.54717806 26.54489503 150.13589478 26.5377655 C148.40254273 26.54347041 146.66919443 26.55043514 144.93585205 26.55856323 C140.23541978 26.57649633 135.53517418 26.57532598 130.83471799 26.56962085 C126.90824444 26.56652925 122.98180676 26.57262113 119.05533832 26.57865959 C109.79130723 26.59270368 100.52736835 26.59114446 91.26333618 26.57975769 C81.71113026 26.56827605 72.1592051 26.58235319 62.60703617 26.60915416 C54.40048419 26.63131624 46.19402031 26.63794741 37.98744053 26.63207775 C33.08836102 26.62870826 28.18946148 26.63112283 23.29040718 26.64832878 C18.68314709 26.66380393 14.07630269 26.65983607 9.46905899 26.64102364 C7.78042238 26.63733935 6.09175493 26.64044157 4.40314674 26.65090942 C2.09329432 26.66413274 -0.2151846 26.65256166 -2.52497864 26.63491821 C-4.46149874 26.63460429 -4.46149874 26.63460429 -6.43714046 26.63428402 C-11.24767804 25.9670307 -15.42003338 24.2776334 -18.45614624 20.27433777 C-19.97852961 15.86216082 -20.41206507 12.46606548 -18.97567749 7.96183777 C-17.28008077 4.62763918 -15.18898844 3.16741765 -12.04598999 1.13371277 C-8.02541175 0.02918045 -4.15440314 0.00558171 0 0 Z " fill="#B6BBC9" transform="translate(336.0459899902344,443.8662872314453)"/>
</svg>
